<svg width="20" height="28" viewBox="0 0 20 28" fill="none" xmlns="http://www.w3.org/2000/svg">
<path d="M9.99148 0C4.79929 0 0.574445 4.22944 0.563156 9.41921C0.452367 11.8747 1.24518 13.6799 1.97683 15.0899C2.71289 16.5085 3.2995 17.5215 3.30386 18.8225C3.3051 19.1321 3.42927 19.4285 3.64905 19.6466C3.86883 19.8647 4.16624 19.9865 4.47585 19.9853H15.5071C15.8167 19.9841 16.1132 19.8599 16.3312 19.6401C16.5493 19.4203 16.6712 19.1229 16.67 18.8133C16.67 17.557 17.2884 16.3939 18.0244 14.9189C18.7547 13.4552 19.552 11.6709 19.4198 9.41237C19.4022 4.22648 15.1808 1.32369e-06 9.99148 0ZM12.6433 7.22344C12.6759 7.22207 12.7087 7.22207 12.7413 7.22344C12.9017 7.22807 13.0593 7.26569 13.2045 7.33395C13.3496 7.40221 13.4791 7.49965 13.585 7.62018C13.7887 7.8521 13.8923 8.15527 13.873 8.46335C13.8538 8.77144 13.7133 9.05937 13.4823 9.26416L10.2925 12.0756C10.0708 12.2717 9.78289 12.3764 9.487 12.3683C9.19111 12.3603 8.90932 12.2401 8.69864 12.0322L7.04328 10.3769C6.93421 10.2684 6.84766 10.1394 6.78861 9.99736C6.72955 9.85532 6.69915 9.703 6.69915 9.54917C6.69915 9.39534 6.72955 9.24303 6.78861 9.10099C6.84766 8.95894 6.93421 8.82997 7.04328 8.72149C7.15176 8.61242 7.28073 8.52588 7.42277 8.46682C7.56481 8.40777 7.71713 8.37736 7.87096 8.37736C8.02479 8.37736 8.1771 8.40777 8.31914 8.46682C8.46118 8.52588 8.59015 8.61242 8.69864 8.72149L9.56965 9.60161L11.9296 7.5153C12.1276 7.33999 12.3792 7.23709 12.6433 7.22344Z" fill="#2F3142"/>
<path d="M3.59785 17.6939C3.44302 17.6921 3.28937 17.7211 3.14586 17.7793C3.00234 17.8374 2.87183 17.9236 2.76192 18.0326C2.652 18.1417 2.56488 18.2715 2.50562 18.4146C2.44636 18.5577 2.41616 18.7111 2.41676 18.8659V21.1666C2.41208 25.0109 5.87836 27.9974 9.98221 28.0001C14.0861 28.0028 17.5605 25.0205 17.5659 21.1757V19.0027C17.5647 18.6963 17.4431 18.4026 17.2272 18.185C17.0114 17.9674 16.7186 17.8435 16.4122 17.8399L3.59785 17.6939ZM4.8086 21.6659H15.1741C15.0611 22.5411 14.6613 23.3421 14.0386 24.0008H5.93954C5.31886 23.3423 4.92085 22.5404 4.8086 21.6659Z" fill="#2F3142"/>
</svg>
