<svg width="30" height="17" viewBox="0 0 30 17" fill="none" xmlns="http://www.w3.org/2000/svg">
<path fill-rule="evenodd" clip-rule="evenodd" d="M21.2644 3.59398C18.456 3.59398 16.1794 5.87063 16.1794 8.67903C16.1794 11.4874 18.456 13.7641 21.2644 13.7641C24.0728 13.7641 26.3495 11.4874 26.3495 8.67903C26.3495 5.87063 24.0728 3.59398 21.2644 3.59398ZM13.4058 8.67903C13.4058 4.33877 16.9242 0.820312 21.2644 0.820312C25.6047 0.820312 29.1232 4.33877 29.1232 8.67903C29.1232 13.0193 25.6047 16.5377 21.2644 16.5377C16.9242 16.5377 13.4058 13.0193 13.4058 8.67903Z" fill="#2F3142"/>
<path fill-rule="evenodd" clip-rule="evenodd" d="M14.7931 10.0657H6.47217V7.29199H14.7931V10.0657Z" fill="#2F3142"/>
<path d="M7.39645 8.67894C7.39645 10.2108 6.15464 11.4526 4.62279 11.4526C3.09095 11.4526 1.84912 10.2108 1.84912 8.67894C1.84912 7.14708 3.09095 5.90527 4.62279 5.90527C6.15464 5.90527 7.39645 7.14708 7.39645 8.67894Z" fill="#2F3142"/>
<path fill-rule="evenodd" clip-rule="evenodd" d="M4.62277 7.7546C4.11216 7.7546 3.69823 8.16854 3.69823 8.67916C3.69823 9.18979 4.11216 9.60372 4.62277 9.60372C5.13339 9.60372 5.54733 9.18979 5.54733 8.67916C5.54733 8.16854 5.13339 7.7546 4.62277 7.7546ZM0 8.67916C0 6.12607 2.06968 4.0564 4.62277 4.0564C7.17586 4.0564 9.24555 6.12607 9.24555 8.67916C9.24555 11.2323 7.17586 13.3019 4.62277 13.3019C2.06968 13.3019 0 11.2323 0 8.67916Z" fill="#2F3142"/>
</svg>
