<svg width="27" height="22" viewBox="0 0 27 22" fill="none" xmlns="http://www.w3.org/2000/svg">
<path d="M24.093 3.375C23.7836 3.375 23.5564 3.627 23.589 3.93412C23.589 3.93412 23.625 4.27613 23.625 4.5C23.625 5.74312 22.6181 6.75 21.375 6.75C20.1319 6.75 19.125 5.74312 19.125 4.5C19.125 4.27725 19.161 3.93412 19.161 3.93412C19.1925 3.627 18.9664 3.375 18.657 3.375H14.0625C13.752 3.375 13.5 3.627 13.5 3.9375V8.532C13.5 8.84137 13.248 9.06862 12.9409 9.036C12.9409 9.036 12.5989 9 12.375 9C11.1319 9 10.125 10.0069 10.125 11.25C10.125 12.4931 11.1319 13.5 12.375 13.5C12.5977 13.5 12.9409 13.464 12.9409 13.464C13.248 13.4325 13.5 13.6586 13.5 13.968V17.4375C13.5 17.748 13.752 18 14.0625 18H18.657C18.9664 18 19.1936 17.748 19.161 17.4409C19.161 17.4409 19.125 17.0989 19.125 16.875C19.125 15.6319 20.1319 14.625 21.375 14.625C22.6181 14.625 23.625 15.6319 23.625 16.875C23.625 17.0977 23.589 17.4409 23.589 17.4409C23.5575 17.748 23.7836 18 24.093 18H26.4375C26.748 18 27 17.748 27 17.4375V3.9375C27 3.627 26.748 3.375 26.4375 3.375H24.093Z" fill="#2F3142"/>
<path d="M9 11.25C9 9.38925 10.5142 7.875 12.375 7.875V3.9375C12.375 3.627 12.123 3.375 11.8125 3.375H7.218C6.90863 3.375 6.68138 3.123 6.714 2.81588C6.714 2.81588 6.75 2.47275 6.75 2.25C6.75 1.00688 5.74312 0 4.5 0C3.25688 0 2.25 1.00688 2.25 2.25C2.25 2.47275 2.286 2.81588 2.286 2.81588C2.3175 3.123 2.09138 3.375 1.782 3.375H0.5625C0.252 3.375 0 3.627 0 3.9375V17.4375C0 17.748 0.252 18 0.5625 18H1.782C2.09138 18 2.31862 18.252 2.286 18.5591C2.286 18.5591 2.25 18.9023 2.25 19.125C2.25 20.3681 3.25688 21.375 4.5 21.375C5.74312 21.375 6.75 20.3681 6.75 19.125C6.75 18.9023 6.714 18.5591 6.714 18.5591C6.6825 18.252 6.90863 18 7.218 18H11.8125C12.123 18 12.375 17.748 12.375 17.4375V14.625C10.5142 14.625 9 13.1108 9 11.25Z" fill="#2F3142"/>
</svg>
