<svg width="153" height="34" viewBox="0 0 153 34" fill="none" xmlns="http://www.w3.org/2000/svg">
<rect x="0.414551" y="2.12695" width="29.9881" height="29.9881" rx="2.99881" fill="#203FFF"/>
<path d="M13.4046 9.44852C13.581 8.98519 14.2365 8.98519 14.4129 9.44852L16.1658 14.0519C16.2205 14.1957 16.3341 14.3093 16.478 14.3641L21.0814 16.117C21.5447 16.2934 21.5447 16.9489 21.0814 17.1253L16.478 18.8782C16.3341 18.9329 16.2205 19.0465 16.1658 19.1904L14.4129 23.7938C14.2365 24.2571 13.581 24.2571 13.4046 23.7938L11.6517 19.1904C11.5969 19.0465 11.4833 18.9329 11.3395 18.8782L6.73612 17.1253C6.27279 16.9489 6.27279 16.2934 6.73612 16.117L11.3395 14.3641C11.4833 14.3093 11.5969 14.1957 11.6517 14.0519L13.4046 9.44852Z" fill="white"/>
<path d="M22.1958 19.711C22.2657 19.5138 22.5446 19.5138 22.6145 19.711L23.4159 21.9726C23.4383 22.0358 23.4879 22.0854 23.5511 22.1078L25.8127 22.9092C26.0099 22.979 26.0099 23.258 25.8127 23.3279L23.5511 24.1293C23.4879 24.1516 23.4383 24.2013 23.4159 24.2645L22.6145 26.526C22.5446 26.7233 22.2657 26.7233 22.1958 26.526L21.3944 24.2645C21.372 24.2013 21.3224 24.1516 21.2592 24.1293L18.9976 23.3279C18.8004 23.258 18.8004 22.979 18.9976 22.9092L21.2592 22.1078C21.3224 22.0854 21.372 22.0358 21.3944 21.9726L22.1958 19.711Z" fill="white"/>
<path d="M66.4994 9.42019L61.8815 25H58.9897L55.7168 13.2087L52.2422 25L49.3728 25.0224L44.9567 9.42019H47.6691L50.8972 22.1082L54.3942 9.42019H57.2636L60.5141 22.041L63.7645 9.42019H66.4994ZM67.7553 18.7681C67.7553 17.5277 68.0093 16.4292 68.5175 15.4728C69.0405 14.5163 69.7429 13.7766 70.6247 13.2535C71.5213 12.7155 72.5077 12.4465 73.5837 12.4465C74.5551 12.4465 75.3995 12.6408 76.1168 13.0293C76.8491 13.4029 77.432 13.8737 77.8654 14.4416V12.6482H80.4433V25H77.8654V23.1618C77.432 23.7446 76.8416 24.2303 76.0944 24.6189C75.3472 25.0075 74.4953 25.2018 73.5389 25.2018C72.4778 25.2018 71.5064 24.9327 70.6247 24.3947C69.7429 23.8418 69.0405 23.0796 68.5175 22.1082C68.0093 21.1219 67.7553 20.0085 67.7553 18.7681ZM77.8654 18.8129C77.8654 17.9611 77.686 17.2213 77.3273 16.5936C76.9836 15.966 76.5278 15.4877 75.9599 15.1589C75.392 14.8302 74.7793 14.6658 74.1217 14.6658C73.4642 14.6658 72.8514 14.8302 72.2835 15.1589C71.7156 15.4728 71.2523 15.9435 70.8937 16.5712C70.5499 17.1839 70.3781 17.9162 70.3781 18.7681C70.3781 19.6199 70.5499 20.3672 70.8937 21.0098C71.2523 21.6524 71.7156 22.1456 72.2835 22.4893C72.8664 22.8181 73.4791 22.9825 74.1217 22.9825C74.7793 22.9825 75.392 22.8181 75.9599 22.4893C76.5278 22.1605 76.9836 21.6823 77.3273 21.0546C77.686 20.412 77.8654 19.6648 77.8654 18.8129ZM94.9187 12.6482L87.3418 30.806H84.6966L87.2073 24.7982L82.3428 12.6482H85.1898L88.6644 22.0634L92.2735 12.6482H94.9187ZM108.033 12.6482V25H105.478V23.5429C105.074 24.051 104.544 24.4545 103.886 24.7534C103.244 25.0374 102.556 25.1793 101.824 25.1793C100.852 25.1793 99.9782 24.9776 99.2011 24.5741C98.4389 24.1706 97.8336 23.5728 97.3853 22.7807C96.9519 21.9887 96.7352 21.0322 96.7352 19.9113V12.6482H99.2683V19.5303C99.2683 20.6362 99.5448 21.488 100.098 22.0858C100.651 22.6686 101.405 22.9601 102.362 22.9601C103.318 22.9601 104.073 22.6686 104.626 22.0858C105.194 21.488 105.478 20.6362 105.478 19.5303V12.6482H108.033ZM113.961 14.464C114.394 13.8961 114.984 13.4179 115.732 13.0293C116.479 12.6408 117.323 12.4465 118.265 12.4465C119.341 12.4465 120.32 12.7155 121.201 13.2535C122.098 13.7766 122.801 14.5163 123.309 15.4728C123.817 16.4292 124.071 17.5277 124.071 18.7681C124.071 20.0085 123.817 21.1219 123.309 22.1082C122.801 23.0796 122.098 23.8418 121.201 24.3947C120.32 24.9327 119.341 25.2018 118.265 25.2018C117.323 25.2018 116.486 25.0149 115.754 24.6413C115.022 24.2528 114.424 23.7745 113.961 23.2066V30.8733H111.405V12.6482H113.961V14.464ZM121.47 18.7681C121.47 17.9162 121.291 17.1839 120.932 16.5712C120.589 15.9435 120.125 15.4728 119.543 15.1589C118.975 14.8302 118.362 14.6658 117.704 14.6658C117.062 14.6658 116.449 14.8302 115.866 15.1589C115.298 15.4877 114.835 15.966 114.476 16.5936C114.133 17.2213 113.961 17.9611 113.961 18.8129C113.961 19.6648 114.133 20.412 114.476 21.0546C114.835 21.6823 115.298 22.1605 115.866 22.4893C116.449 22.8181 117.062 22.9825 117.704 22.9825C118.362 22.9825 118.975 22.8181 119.543 22.4893C120.125 22.1456 120.589 21.6524 120.932 21.0098C121.291 20.3672 121.47 19.6199 121.47 18.7681ZM141.814 21.8168H135.291L134.17 25H131.502L137.084 9.39777H140.043L145.625 25H142.935L141.814 21.8168ZM141.097 19.732L138.563 12.4913L136.008 19.732H141.097ZM150.607 9.42019V25H148.052V9.42019H150.607Z" fill="black"/>
</svg>
