<svg width="95" height="22" viewBox="0 0 95 22" fill="none" xmlns="http://www.w3.org/2000/svg">
<path d="M42.7629 5.45086L39.7734 16.4978H36.0317L34.2895 9.33116L32.488 16.4978H28.766L25.7568 5.45086H29.1422L30.7062 13.35L32.5672 5.45086H36.1505L38.0313 13.3105L39.5755 5.45086H42.7629Z" fill="white"/>
<path d="M43.3808 10.9546C43.3808 9.8195 43.5919 8.82303 44.0143 7.96514C44.4498 7.10725 45.0371 6.44733 45.7762 5.98539C46.5153 5.52345 47.3402 5.29248 48.2509 5.29248C49.0296 5.29248 49.7093 5.45086 50.2901 5.76762C50.884 6.08438 51.3393 6.50013 51.6561 7.01486V5.45086H55.0415V16.4978H51.6561V14.9338C51.3261 15.4486 50.8642 15.8643 50.2703 16.1811C49.6895 16.4978 49.0098 16.6562 48.2311 16.6562C47.3336 16.6562 46.5153 16.4253 45.7762 15.9633C45.0371 15.4882 44.4498 14.8217 44.0143 13.9638C43.5919 13.0927 43.3808 12.0896 43.3808 10.9546ZM51.6561 10.9744C51.6561 10.1297 51.4185 9.46315 50.9434 8.97481C50.4814 8.48647 49.9139 8.2423 49.2408 8.2423C48.5677 8.2423 47.9936 8.48647 47.5184 8.97481C47.0565 9.44995 46.8255 10.1099 46.8255 10.9546C46.8255 11.7992 47.0565 12.4724 47.5184 12.9739C47.9936 13.4622 48.5677 13.7064 49.2408 13.7064C49.9139 13.7064 50.4814 13.4622 50.9434 12.9739C51.4185 12.4856 51.6561 11.819 51.6561 10.9744Z" fill="white"/>
<path d="M68.7752 5.45086L61.8461 21.7442H58.2033L60.7374 16.1217L56.2434 5.45086H60.0247L62.5786 12.3602L65.1126 5.45086H68.7752Z" fill="white"/>
<path d="M80.9078 5.45086V16.4978H77.5224V14.9932C77.1792 15.4816 76.7107 15.8775 76.1168 16.1811C75.5361 16.4714 74.8893 16.6166 74.1766 16.6166C73.3319 16.6166 72.5862 16.4319 71.9395 16.0623C71.2928 15.6795 70.7913 15.1318 70.4349 14.4191C70.0786 13.7064 69.9004 12.8683 69.9004 11.9048V5.45086H73.2659V11.4495C73.2659 12.1886 73.4573 12.7627 73.8401 13.1719C74.2228 13.581 74.7376 13.7856 75.3843 13.7856C76.0442 13.7856 76.5655 13.581 76.9483 13.1719C77.331 12.7627 77.5224 12.1886 77.5224 11.4495V5.45086H80.9078Z" fill="white"/>
<path d="M86.7248 7.01486C87.0548 6.50013 87.5101 6.08438 88.0908 5.76762C88.6716 5.45086 89.3513 5.29248 90.13 5.29248C91.0407 5.29248 91.8655 5.52345 92.6047 5.98539C93.3438 6.44733 93.9245 7.10725 94.3468 7.96514C94.7824 8.82303 95.0001 9.8195 95.0001 10.9546C95.0001 12.0896 94.7824 13.0927 94.3468 13.9638C93.9245 14.8217 93.3438 15.4882 92.6047 15.9633C91.8655 16.4253 91.0407 16.6562 90.13 16.6562C89.3645 16.6562 88.6848 16.4978 88.0908 16.1811C87.5101 15.8643 87.0548 15.4552 86.7248 14.9536V21.764H83.3394V5.45086H86.7248V7.01486ZM91.5554 10.9546C91.5554 10.1099 91.3178 9.44995 90.8427 8.97481C90.3807 8.48647 89.8066 8.2423 89.1203 8.2423C88.4472 8.2423 87.8731 8.48647 87.3979 8.97481C86.936 9.46315 86.705 10.1297 86.705 10.9744C86.705 11.819 86.936 12.4856 87.3979 12.9739C87.8731 13.4622 88.4472 13.7064 89.1203 13.7064C89.7934 13.7064 90.3675 13.4622 90.8427 12.9739C91.3178 12.4724 91.5554 11.7992 91.5554 10.9546Z" fill="white"/>
<path d="M11.4989 13.4002C11.3172 13.2731 11.0753 13.2731 10.8936 13.4002L1.57437 19.9206C1.26152 20.1395 0.826926 19.9641 0.753611 19.5894L0.00984261 15.7879C-0.0296632 15.586 0.0517371 15.3795 0.218406 15.2589L10.8928 7.53264C11.0746 7.40111 11.3196 7.39878 11.5038 7.52684L22.1681 14.9411C22.3382 15.0593 22.4234 15.2662 22.386 15.4699L21.6315 19.5775C21.5621 19.9556 21.1246 20.1351 20.8096 19.9147L11.4989 13.4002Z" fill="white"/>
<path d="M18.37 9.2992C18.685 9.51961 19.1224 9.34015 19.1919 8.962L19.7115 6.13291C19.7489 5.92914 19.6637 5.72233 19.4936 5.60407L11.5689 0.0944659C11.3847 -0.0335885 11.1397 -0.0312602 10.958 0.100271L3.02309 5.84362C2.85642 5.96425 2.77502 6.17073 2.81453 6.37265L3.32348 8.97394C3.39679 9.34867 3.83139 9.52404 4.14424 9.30514L10.9587 4.53724C11.1404 4.41008 11.3823 4.41008 11.564 4.53724L18.37 9.2992Z" fill="white"/>
<mask id="mask0_5_468" style="mask-type:alpha" maskUnits="userSpaceOnUse" x="0" y="7" width="23" height="14">
<path d="M11.4989 13.4002C11.3172 13.2731 11.0753 13.2731 10.8936 13.4002L1.57437 19.9206C1.26152 20.1395 0.826926 19.9641 0.753611 19.5894L0.00984261 15.7879C-0.0296632 15.586 0.0517371 15.3795 0.218406 15.2589L10.8928 7.53264C11.0746 7.40111 11.3196 7.39878 11.5038 7.52684L22.1681 14.9411C22.3382 15.0593 22.4234 15.2662 22.386 15.4699L21.6315 19.5775C21.5621 19.9556 21.1246 20.1351 20.8096 19.9147L11.4989 13.4002Z" fill="#22221F"/>
</mask>
<g mask="url(#mask0_5_468)">
<path d="M11.2515 6.99536L23.064 14.1884L23.3939 22.0414H11.2515V6.99536Z" fill="white"/>
</g>
<mask id="mask1_5_468" style="mask-type:alpha" maskUnits="userSpaceOnUse" x="2" y="0" width="18" height="10">
<path d="M18.37 9.2992C18.685 9.51961 19.1224 9.34015 19.1919 8.962L19.7115 6.13291C19.7489 5.92914 19.6637 5.72233 19.4936 5.60407L11.5689 0.0944659C11.3847 -0.0335885 11.1397 -0.0312602 10.958 0.100271L3.02309 5.84362C2.85642 5.96425 2.77502 6.17073 2.81453 6.37265L3.32348 8.97394C3.39679 9.34867 3.83139 9.52404 4.14424 9.30514L10.9587 4.53724C11.1404 4.41008 11.3823 4.41008 11.564 4.53724L18.37 9.2992Z" fill="#22221F"/>
</mask>
<g mask="url(#mask1_5_468)">
<path d="M11.2734 -0.340576V5.00474L19.7204 11.6039L20.3803 5.53267L11.2734 -0.340576Z" fill="white"/>
</g>
</svg>
